# xmcd CD database file
#
# Track frame offsets:
#	150
#	14090
#	24512
#	33964
#	49192
#	61712
#	74481
#	87370
#	98017
#	114452
#	128919
#	143093
#
# Disc length: 2155 seconds
#
# Revision: 1
# Processed by: cddbd v1.5.1PL0 Copyright (c) Steve Scherf et al.
# Submitted via: CDex 1.51
#
DISCID=9f08690c
DTITLE=Nina Simone - High Priestess Of Soul
DYEAR=1966
DGENRE=Jazz
TTITLE0=Don't You Pay Them No Mind
TTITLE1=I'm Gonna Leave You
TTITLE2=Brown Eyed Handsome Man
TTITLE3=Keeper Of The Flame
TTITLE4=The Gal From Joe's
TTITLE5=Take Me To The Water
TTITLE6=I'm Going Back Home
TTITLE7=I Hold No Grudge
TTITLE8=Come Ye
TTITLE9=He Ain't Comin' Home No Home
TTITLE10=Work Song
TTITLE11=I Love My Baby
EXTD=YEAR: 1966
EXTT0=
EXTT1=
EXTT2=
EXTT3=
EXTT4=
EXTT5=
EXTT6=
EXTT7=
EXTT8=
EXTT9=
EXTT10=
EXTT11=
PLAYORDER=
